<?xml version="1.0" encoding="UTF-8" standalone="no"?>
<!DOCTYPE svg PUBLIC "-//W3C//DTD SVG 1.1//EN" "http://www.w3.org/Graphics/SVG/1.1/DTD/svg11.dtd">
<svg width="100%" height="100%" viewBox="0 0 104 81" version="1.1" xmlns="http://www.w3.org/2000/svg" xmlns:xlink="http://www.w3.org/1999/xlink" xml:space="preserve" xmlns:serif="http://www.serif.com/" style="fill-rule:evenodd;clip-rule:evenodd;stroke-linejoin:round;stroke-miterlimit:1.41421;">
    <g transform="matrix(1,0,0,1,-1907,-955)">
        <g transform="matrix(2.73564,0,0,2.73564,-3259.12,-1638.34)">
            <path d="M1899.81,950.985C1907.04,949.789 1913.88,954.686 1915.08,961.913C1916.27,969.14 1911.37,975.978 1904.15,977.174C1896.92,978.369 1890.08,973.473 1888.89,966.246C1887.69,959.019 1892.59,952.181 1899.81,950.985ZM1894.79,957.53C1898.66,956 1903.12,958.056 1904.73,962.119C1906.35,966.183 1904.51,970.724 1900.63,972.254C1896.76,973.784 1892.3,971.728 1890.69,967.664C1889.08,963.601 1890.91,959.06 1894.79,957.53ZM1891.67,963.736C1891.68,963.786 1891.73,963.847 1891.76,963.893L1892.35,964.782C1892.41,964.866 1892.49,964.93 1892.57,964.917C1892.68,964.898 1892.85,964.717 1892.85,964.717L1893.44,964.086L1894.22,968.762C1894.25,968.946 1894.41,969.074 1894.58,969.046L1896.09,968.795C1896.26,968.767 1896.37,968.595 1896.34,968.411L1895.29,962.065C1895.26,961.881 1895.1,961.753 1894.93,961.781L1893.64,961.994C1893.39,962.035 1893.27,962.16 1892.94,962.454L1891.81,963.412C1891.72,963.488 1891.65,963.602 1891.67,963.736ZM1896.92,966.256C1897.16,967.684 1898.5,968.569 1900.14,968.297C1901.79,968.024 1902.8,966.906 1902.51,965.16C1902.27,963.732 1901.13,963.243 1900.11,963.412C1899.44,963.523 1898.98,963.83 1898.68,964.197L1898.61,963.746C1898.5,963.086 1898.98,962.654 1899.51,962.567C1899.95,962.494 1900.39,962.619 1900.58,962.715C1900.64,962.748 1900.72,962.753 1900.78,962.743C1900.9,962.724 1900.98,962.641 1901.02,962.531L1901.33,961.665C1901.35,961.602 1901.36,961.548 1901.35,961.448C1901.33,961.364 1901.25,961.267 1901.15,961.223C1900.73,961.01 1900.07,960.759 1899,960.936C1897.17,961.238 1896.31,962.589 1896.62,964.419L1896.92,966.256ZM1909.06,951.629C1910.48,949.914 1912.51,948.683 1914.89,948.289C1920.16,947.417 1925.15,950.989 1926.03,956.263C1926.9,961.536 1923.33,966.526 1918.05,967.399C1917.31,967.521 1916.57,967.556 1915.85,967.501C1917.93,963.104 1915.65,954.541 1909.06,951.629ZM1899.04,965.905C1898.98,965.504 1899.15,965.115 1899.6,965.039C1900.01,964.973 1900.35,965.277 1900.41,965.679C1900.48,966.08 1900.26,966.477 1899.85,966.544C1899.45,966.61 1899.11,966.306 1899.04,965.905ZM1918.87,952.579C1921.01,951.734 1923.43,952.763 1924.27,954.874C1925.11,956.986 1924.05,959.386 1921.91,960.231C1919.77,961.076 1917.36,960.047 1916.52,957.935C1915.68,955.824 1916.73,953.423 1918.87,952.579ZM1919.75,957.994C1920.09,958.774 1920.9,958.91 1921.81,958.519C1922.72,958.128 1923.18,957.44 1922.85,956.661C1922.63,956.169 1922.26,955.9 1921.76,955.873C1922.01,955.525 1922.04,955.125 1921.87,954.728C1921.58,954.057 1920.79,953.779 1919.93,954.149C1919.07,954.518 1918.73,955.283 1919.02,955.953C1919.19,956.351 1919.5,956.606 1919.92,956.666C1919.6,957.046 1919.54,957.502 1919.75,957.994ZM1920.86,957.341C1920.75,957.092 1920.75,956.799 1921.02,956.681C1921.29,956.564 1921.5,956.768 1921.61,957.016C1921.72,957.265 1921.65,957.53 1921.43,957.626C1921.2,957.721 1920.96,957.589 1920.86,957.341ZM1920.19,955.566C1920.08,955.298 1920.12,955.066 1920.29,954.993C1920.46,954.919 1920.66,955.045 1920.78,955.314C1920.89,955.582 1920.86,955.808 1920.68,955.887C1920.49,955.967 1920.31,955.835 1920.19,955.566Z" style="fill:#fff;"/>
        </g>
    </g>
</svg>
